<svg width="182" height="123" viewBox="0 0 182 123" fill="none" xmlns="http://www.w3.org/2000/svg">
<path d="M105.444 17.4681C102.394 15.571 99.1339 14.0823 95.7653 13.0475C93.5135 12.1761 91.2708 11.7041 89.0916 11.6496H88.9645C86.9306 11.7041 84.8331 12.1216 82.7266 12.8841C79.3035 13.8735 75.9984 15.344 72.9022 17.2503C60.5536 24.8479 55.1147 37.1839 60.2358 45.9525L60.3629 46.1431C61.852 48.2036 63.559 49.892 65.4476 51.1537L65.5566 51.2173C67.5088 52.3791 69.7606 53.2052 72.2575 53.6681L72.4845 53.6953C72.884 53.7317 73.2836 53.7498 73.674 53.7498C76.3979 53.7498 79.0674 52.9329 81.5462 51.3625C83.335 53.659 85.3507 55.7196 87.539 57.4715L89.019 58.6606L90.499 57.4715C92.5601 55.8194 94.4669 53.895 96.1739 51.7528C98.8979 53.6772 101.876 54.6848 104.918 54.6848C105.299 54.6848 105.671 54.6666 106.053 54.6394L106.28 54.6121C108.813 54.1583 111.101 53.3232 113.081 52.1522L113.19 52.0887C115.096 50.8088 116.831 49.0932 118.329 46.9963L118.456 46.8057C123.586 37.91 117.993 25.2927 105.435 17.4772L105.444 17.4681ZM79.8029 38.373C79.1491 36.4668 78.6952 34.5878 78.4409 32.7723H99.6243C99.37 34.5878 98.916 36.4758 98.2623 38.373H79.8029ZM89.0281 16.3879C90.6624 16.4424 92.3694 16.8146 94.1219 17.4953L94.2127 17.5317C94.2944 17.577 94.367 17.6224 94.4487 17.6678C94.5668 17.7314 94.6848 17.804 94.8028 17.8766C94.8846 17.9311 94.9572 17.9855 95.0389 18.04C95.1479 18.1126 95.2568 18.1852 95.3658 18.2669C95.4384 18.3214 95.5111 18.3849 95.5837 18.4485C95.6836 18.5302 95.7926 18.6118 95.8924 18.6935C95.9651 18.7571 96.0377 18.8297 96.1013 18.8932C96.1921 18.984 96.2919 19.0657 96.3827 19.1565C96.4554 19.2291 96.5189 19.3108 96.5916 19.3834C96.6733 19.4742 96.7641 19.565 96.8458 19.6557C96.9185 19.7374 96.982 19.8282 97.0547 19.9099C97.1273 20.0007 97.209 20.0914 97.2817 20.1913C97.3543 20.2821 97.4179 20.3819 97.4814 20.4727C97.545 20.5725 97.6176 20.6633 97.6812 20.7632C97.7447 20.8721 97.8083 20.981 97.8718 21.0899C97.9263 21.1807 97.9899 21.2806 98.0444 21.3713C98.1079 21.4893 98.1715 21.6073 98.235 21.7344C98.2804 21.8252 98.3349 21.916 98.3803 22.0158C98.4439 22.1429 98.4984 22.279 98.5528 22.4061C98.5982 22.4969 98.6346 22.5877 98.68 22.6875C98.7435 22.8328 98.7889 22.978 98.8434 23.1232C98.8797 23.214 98.916 23.2957 98.9433 23.3865C98.9977 23.5499 99.0522 23.7133 99.1067 23.8766C99.1339 23.9583 99.1612 24.031 99.1793 24.1126C99.2338 24.2942 99.2792 24.4757 99.3246 24.6573C99.3428 24.7299 99.3609 24.7934 99.3791 24.8661C99.4245 25.0567 99.4608 25.2473 99.5062 25.447C99.5153 25.5105 99.5335 25.5741 99.5516 25.6467C99.5879 25.8555 99.6243 26.0733 99.6606 26.2912C99.6606 26.3456 99.6787 26.4001 99.6878 26.4455C99.7241 26.6724 99.7514 26.9084 99.7695 27.1354C99.7695 27.1808 99.7786 27.2171 99.7877 27.2625C99.8149 27.5075 99.8331 27.7617 99.8513 28.0159V28.0522H78.2502C78.4591 24.6845 79.4579 21.7616 81.2284 19.692L81.2466 19.6648C81.3919 19.5014 81.5372 19.338 81.6824 19.1837L81.7097 19.1565C81.8277 19.0385 81.9548 18.9296 82.0729 18.8115C82.1183 18.7752 82.1546 18.7299 82.2 18.6845C82.2908 18.6028 82.3816 18.5392 82.4724 18.4575C82.5541 18.394 82.6358 18.3214 82.7266 18.2488C82.7811 18.2034 82.8447 18.1671 82.9082 18.1217C83.0353 18.0309 83.1625 17.9401 83.2896 17.8584C83.3259 17.8403 83.3531 17.8221 83.3894 17.804C83.5529 17.7041 83.7163 17.6043 83.8798 17.5135C83.9615 17.4772 84.0523 17.45 84.134 17.4137C85.8229 16.7782 87.4663 16.4242 89.0462 16.3788L89.0281 16.3879ZM78.8677 47.4593C76.9881 48.6121 74.9906 49.1386 73.0112 48.9843C71.1407 48.6212 69.47 48.0221 68.0445 47.1779C66.6734 46.252 65.4113 44.9994 64.2854 43.4653C60.7533 37.2474 65.2751 27.8615 74.6546 21.7616C74.6365 21.8161 74.6183 21.8706 74.6001 21.925C74.5003 22.2155 74.4004 22.5151 74.3187 22.8146C74.2823 22.9417 74.246 23.0688 74.2188 23.1868C74.1461 23.4409 74.0826 23.6951 74.0281 23.9493C74.0009 24.0854 73.9645 24.2216 73.9373 24.3577C73.8828 24.6301 73.8283 24.9024 73.7829 25.1838C73.7648 25.3018 73.7375 25.4198 73.7194 25.5378C73.6558 25.9281 73.6104 26.3275 73.565 26.7269C73.565 26.7904 73.5559 26.854 73.5469 26.9175C73.5105 27.2624 73.4924 27.6074 73.4742 27.9523C73.4742 28.0885 73.4652 28.2337 73.4561 28.3789C73.447 28.6603 73.4379 28.9417 73.4379 29.2322C73.4379 29.3865 73.4379 29.5408 73.4379 29.6951C73.4379 29.9947 73.447 30.2942 73.4652 30.5938C73.4652 30.7299 73.4742 30.857 73.4833 30.9932C73.5105 31.4198 73.5378 31.8555 73.5832 32.2912C73.5832 32.3457 73.6013 32.4002 73.6013 32.4546C73.6467 32.8359 73.6921 33.2262 73.7466 33.6165C73.7648 33.7617 73.792 33.9161 73.8193 34.0613C73.8647 34.3699 73.9191 34.6695 73.9827 34.9781C74.0099 35.1415 74.0463 35.3049 74.0826 35.4683C74.1461 35.786 74.2188 36.1037 74.2914 36.4123C74.3277 36.5575 74.355 36.6937 74.3913 36.8389C74.5093 37.2928 74.6274 37.7557 74.7636 38.2096C74.7636 38.2368 74.7817 38.2641 74.7908 38.2913C74.9179 38.727 75.0541 39.1536 75.1994 39.5893C75.2448 39.7346 75.2993 39.8798 75.3538 40.025C75.4627 40.3518 75.5808 40.6695 75.7079 40.9963C75.7714 41.1597 75.835 41.3231 75.8986 41.4774C76.0257 41.8042 76.1619 42.131 76.3071 42.4668C76.3707 42.612 76.4252 42.7482 76.4887 42.8934C76.6976 43.3564 76.9064 43.8284 77.1334 44.2913C77.424 44.8814 77.7236 45.4623 78.0414 46.0342C78.1867 46.2974 78.341 46.5516 78.4863 46.8148C78.6134 47.0327 78.7315 47.2505 78.8586 47.4684L78.8677 47.4593ZM89.0281 52.5153C87.1758 50.8269 85.496 48.8663 84.025 46.715C83.8344 46.4336 83.6528 46.1522 83.4712 45.8708C83.3804 45.7346 83.2986 45.5985 83.2078 45.4623C83.0535 45.2172 82.9082 44.9721 82.7539 44.727C82.6267 44.5183 82.5087 44.3095 82.3907 44.1007C82.2817 43.901 82.1637 43.7013 82.0547 43.5016C81.9911 43.3745 81.9276 43.2474 81.855 43.1204H96.183C96.1103 43.2656 96.0377 43.4108 95.9651 43.547C95.8561 43.7467 95.7381 43.9464 95.62 44.1552C95.4929 44.3821 95.3658 44.609 95.2296 44.8269C95.0752 45.0811 94.9209 45.3352 94.7574 45.5894C94.6576 45.7437 94.5668 45.898 94.4669 46.0432C94.2853 46.3246 94.0946 46.606 93.9039 46.8874C92.4602 48.9752 90.8168 50.8723 89.019 52.5153H89.0281ZM114.406 44.3367C113.271 45.9071 111.991 47.1779 110.611 48.1128C109.167 48.9661 107.469 49.5743 105.572 49.9283C103.32 50.0826 101.05 49.3837 98.9251 47.895C99.0431 47.7135 99.143 47.5228 99.252 47.3413C99.4881 46.9419 99.7332 46.5516 99.9511 46.1431C100.287 45.5349 100.614 44.9086 100.923 44.2823C101.15 43.8193 101.359 43.3564 101.567 42.8934C101.631 42.7482 101.694 42.603 101.758 42.4577C101.867 42.1945 101.985 41.9313 102.085 41.6771C102.112 41.6045 102.13 41.55 102.148 41.4955C102.212 41.3322 102.276 41.1688 102.339 41.0054C102.457 40.6877 102.575 40.37 102.684 40.0523C102.739 39.898 102.793 39.7527 102.839 39.5984C102.975 39.1809 103.111 38.7724 103.238 38.3548C103.256 38.3094 103.265 38.2641 103.283 38.2187C103.42 37.7648 103.538 37.3019 103.656 36.848C103.692 36.7118 103.719 36.5666 103.756 36.4305C103.828 36.1127 103.901 35.795 103.964 35.4773C104.001 35.314 104.028 35.1506 104.064 34.9872C104.119 34.6876 104.173 34.379 104.228 34.0794C104.255 33.9251 104.282 33.7708 104.3 33.6256C104.355 33.2625 104.4 32.8994 104.446 32.5363C104.446 32.4546 104.464 32.3729 104.473 32.3003C104.518 31.8646 104.555 31.438 104.582 31.0023C104.582 30.8661 104.591 30.739 104.6 30.6119C104.618 30.3124 104.627 30.0129 104.627 29.7133C104.627 29.559 104.627 29.4047 104.627 29.2504C104.627 28.969 104.627 28.6967 104.609 28.4153C104.609 28.27 104.6 28.1157 104.591 27.9705C104.573 27.6528 104.555 27.3351 104.518 27.0264C104.518 26.9357 104.5 26.8358 104.491 26.745C104.455 26.3456 104.4 25.9553 104.337 25.565C104.319 25.447 104.3 25.3381 104.282 25.2291C104.237 24.9478 104.182 24.6754 104.128 24.4031C104.101 24.267 104.064 24.1217 104.037 23.9856C103.983 23.7405 103.919 23.4863 103.855 23.2412C103.819 23.1051 103.783 22.978 103.747 22.8418C103.665 22.5695 103.583 22.3063 103.492 22.034C103.465 21.9613 103.447 21.8797 103.42 21.807C113.208 28.1248 118.002 37.9191 114.406 44.3367Z" fill="#386512"/>
<path d="M84.9239 8.62688C83.8253 8.62688 82.8356 7.85532 82.6086 6.73882L81.8095 2.84469C81.5462 1.5648 82.3725 0.31214 83.6528 0.0489008C84.9421 -0.214339 86.186 0.611689 86.4494 1.89158L87.2484 5.78571C87.5117 7.0656 86.6854 8.31826 85.4052 8.5815C85.2417 8.61781 85.0783 8.62688 84.9239 8.62688Z" fill="#386512"/>
<path d="M93.7677 8.62687C93.6134 8.62687 93.45 8.60871 93.2865 8.58148C92.0063 8.31824 91.18 7.06558 91.4433 5.78569L92.2423 1.89156C92.5056 0.611672 93.7587 -0.214356 95.0389 0.0488837C96.3192 0.312123 97.1455 1.56478 96.8821 2.84467L96.0831 6.7388C95.8561 7.8553 94.8664 8.62687 93.7677 8.62687Z" fill="#386512"/>
<path d="M37.3637 71.8316V103.829H28.4654V86.1736L22.4273 103.829H14.9818L8.89827 86.0375V103.829H0V71.8316H10.7596L18.7953 92.6185L26.6494 71.8316H37.3637Z" fill="#386512"/>
<path d="M51.3466 71.8316V103.829H42.4484V71.8316H51.3466Z" fill="#386512"/>
<path d="M76.8611 82.3612C76.3435 81.517 75.6444 80.8635 74.7455 80.4096C73.8466 79.9558 72.8024 79.7288 71.5947 79.7288C69.352 79.7288 67.5905 80.455 66.3012 81.9074C65.0118 83.3597 64.3763 85.3113 64.3763 87.7622C64.3763 90.5126 65.0663 92.6094 66.4465 94.0436C67.8266 95.4778 69.8242 96.204 72.4573 96.204C75.5717 96.204 77.7963 94.797 79.131 91.9831H70.1874V85.5836H86.8035V94.207C86.1044 95.9045 85.0874 97.493 83.7345 98.9726C82.3907 100.452 80.6837 101.668 78.6316 102.622C76.5705 103.575 74.2279 104.056 71.5947 104.056C68.3896 104.056 65.5476 103.366 63.0778 101.986C60.6081 100.606 58.7013 98.6912 57.3575 96.2222C56.0137 93.7532 55.3327 90.9301 55.3327 87.7531C55.3327 84.5761 56.0046 81.7984 57.3575 79.3385C58.7013 76.8695 60.6081 74.9542 63.0506 73.5745C65.5022 72.1947 68.3351 71.5139 71.5403 71.5139C75.5627 71.5139 78.895 72.4852 81.5281 74.4186C84.1613 76.3521 85.7957 79.0026 86.4313 82.3612H76.852H76.8611Z" fill="#386512"/>
<path d="M119.446 71.8316V103.829H110.547V90.9846H99.697V103.829H90.7987V71.8316H99.697V83.8589H110.547V71.8316H119.446Z" fill="#386512"/>
<path d="M148.637 71.8316V78.9119H140.102V103.829H131.204V78.9119H122.76V71.8316H148.637Z" fill="#386512"/>
<path d="M181.053 71.8316L169.794 93.6624V103.829H160.85V93.6624L149.591 71.8316H159.76L165.39 84.1767L171.019 71.8316H181.053Z" fill="#386512"/>
<path d="M37.0186 115.593C37.6451 115.929 38.1264 116.392 38.4623 116.991C38.7983 117.59 38.9708 118.271 38.9708 119.042C38.9708 119.814 38.7983 120.485 38.4623 121.084C38.1173 121.684 37.636 122.156 37.0186 122.491C36.3921 122.836 35.6748 123 34.8485 123H31.716V115.094H34.8485C35.6748 115.094 36.4012 115.257 37.0277 115.593H37.0186ZM36.1833 120.531C36.5465 120.177 36.7371 119.687 36.7371 119.042C36.7371 118.398 36.5555 117.889 36.1833 117.535C35.8201 117.181 35.3116 117 34.6669 117H33.9042V121.057H34.6669C35.3116 121.057 35.811 120.885 36.1833 120.531Z" fill="#386512"/>
<path d="M51.1196 116.855V118.144H53.6438V119.814H51.1196V121.239H53.9798V123H48.9223V115.094H53.9798V116.855H51.1196Z" fill="#386512"/>
<path d="M66.2376 121.312H68.6892V122.991H64.0403V115.085H66.2376V121.303V121.312Z" fill="#386512"/>
<path d="M80.72 115.094V123H78.5227V115.094H80.72Z" fill="#386512"/>
<path d="M98.6346 115.094L95.9106 123H93.0959L90.3628 115.094H92.7145L94.5123 120.803L96.292 115.094H98.6346Z" fill="#386512"/>
<path d="M110.484 116.855V118.144H113.008V119.814H110.484V121.239H113.344V123H108.287V115.094H113.344V116.855H110.484Z" fill="#386512"/>
<path d="M127.409 122.991L125.838 120.077H125.602V122.991H123.405V115.085H126.873C127.509 115.085 128.044 115.194 128.489 115.411C128.934 115.629 129.261 115.938 129.488 116.319C129.715 116.7 129.824 117.136 129.824 117.617C129.824 118.153 129.679 118.625 129.379 119.033C129.079 119.442 128.653 119.732 128.081 119.905L129.86 122.991H127.409ZM125.602 118.57H126.691C126.991 118.57 127.218 118.498 127.363 118.361C127.518 118.216 127.59 118.017 127.59 117.744C127.59 117.49 127.518 117.29 127.363 117.145C127.209 117 126.991 116.927 126.7 116.927H125.611V118.579L125.602 118.57Z" fill="#386512"/>
<path d="M146.976 115.094L144.197 120.486V123H141.991V120.486L139.213 115.094H141.728L143.117 118.144L144.506 115.094H146.985H146.976Z" fill="#386512"/>
</svg>
